Coordinates
version=1
nRows=60
nColumns=12
inDegrees=yes

Units are S.I. units (second, meters, Newtons, ...)
Angles are in degrees

endheader
time	SC_y	SC_z	SC_x	AC_y	AC_z	AC_x	GH_y	GH_z	GH_yy	EL_x	PS_y
       0.0              -28.92          16.05          78.06          65.16          5.256          16.39          147.1          47.15          72.43          14.68          88.39
   0.04024              -28.91          16.06          78.06          65.16          5.254          16.39          147.1          47.16           72.4          14.69          88.38
   0.08049              -28.91          16.06          78.05          65.16          5.252          16.39          147.1          47.16          72.37           14.7          88.37
    0.1207              -28.91          16.06          78.05          65.16           5.25          16.39          147.1          47.17          72.34          14.71          88.36
     0.161              -28.91          16.06          78.05          65.16          5.248          16.39          147.1          47.17          72.31          14.73          88.34
    0.2012               -28.9          16.07          78.04          65.16          5.246          16.39          147.1          47.18          72.28          14.74          88.33
    0.2415               -28.9          16.07          78.04          65.16          5.243          16.39          147.0          47.19          72.24          14.76          88.32
    0.2817               -28.9          16.07          78.03          65.16           5.24          16.39          147.0           47.2           72.2          14.78          88.31
     0.322               -28.9          16.08          78.02          65.16          5.237          16.39          147.0           47.2          72.16          14.79          88.29
    0.3622              -28.89          16.08          78.02          65.16          5.234          16.39          147.0          47.21          72.12          14.81          88.28
    0.4024              -28.89          16.09          78.01          65.16          5.231          16.39          146.9          47.22          72.07          14.83          88.26
    0.4427              -28.89          16.09           78.0          65.16          5.227          16.39          146.9          47.23          72.02          14.86          88.24
    0.4829              -28.88           16.1           78.0          65.16          5.223          16.39          146.9          47.24          71.96          14.88          88.22
    0.5232              -28.88           16.1          77.99          65.16          5.219          16.39          146.8          47.25           71.9          14.91           88.2
    0.5634              -28.87          16.11          77.98          65.16          5.215          16.39          146.8          47.27          71.84          14.94          88.18
    0.6037              -28.87          16.11          77.97          65.16           5.21          16.39          146.7          47.28          71.77          14.97          88.15
    0.6439              -28.86          16.12          77.96          65.16          5.204          16.39          146.7          47.29          71.69           15.0          88.13
    0.6842              -28.85          16.13          77.95          65.16          5.199          16.39          146.6          47.31          71.61          15.04           88.1
    0.7244              -28.85          16.14          77.94          65.16          5.192          16.39          146.6          47.33          71.52          15.08          88.07
    0.7647              -28.84          16.15          77.92          65.16          5.185          16.39          146.5          47.35          71.42          15.12          88.03
    0.8049              -28.83          16.16          77.91          65.16          5.178          16.39          146.4          47.37          71.31          15.17          87.99
    0.8451              -28.82          16.17          77.89          65.16          5.169          16.39          146.4          47.39          71.19          15.22          87.95
    0.8854              -28.81          16.18          77.87          65.17           5.16          16.39          146.3          47.42          71.06          15.28           87.9
    0.9256               -28.8          16.19          77.85          65.17           5.15          16.39          146.2          47.45          70.91          15.34          87.85
    0.9659              -28.79          16.21          77.83          65.17          5.138          16.39          146.1          47.48          70.75          15.42           87.8
     1.006              -28.77          16.22           77.8          65.17          5.125          16.39          146.0          47.51          70.57           15.5          87.73
     1.046              -28.76          16.24          77.77          65.17          5.111          16.39          145.8          47.55          70.37          15.59          87.66
     1.087              -28.74          16.26          77.74          65.17          5.095          16.39          145.7           47.6          70.14          15.69          87.58
     1.127              -28.72          16.29          77.71          65.17          5.077          16.39          145.5          47.65          69.88           15.8          87.49
     1.167               -28.7          16.31          77.66          65.17          5.056          16.39          145.3          47.71          69.59          15.93          87.38
     1.207              -28.67          16.35          77.62          65.17          5.033          16.39          145.1          47.77          69.25          16.08          87.27
     1.248              -28.64          16.38          77.56          65.18          5.006          16.39          144.9          47.85          68.87          16.25          87.13
     1.288              -28.61          16.42           77.5          65.18          4.974           16.4          144.6          47.93          68.42          16.45          86.98
     1.328              -28.57          16.47          77.43          65.18          4.938           16.4          144.3          48.03          67.91          16.67          86.79
     1.368              -28.53          16.52          77.34          65.18          4.896           16.4          143.9          48.15           67.3          16.94          86.58
     1.409              -28.47          16.59          77.25          65.19          4.846           16.4          143.4          48.29          66.59          17.26          86.33
     1.449              -28.41          16.67          77.13          65.19          4.786           16.4          142.9          48.45          65.75          17.63          86.03
     1.489              -28.33          16.76          76.99           65.2          4.715           16.4          142.3          48.65          64.73          18.08          85.68
     1.529              -28.24          16.87          76.81           65.2          4.628           16.4          141.5          48.89          63.51          18.62          85.24
      1.57              -28.12          17.01           76.6          65.21          4.523           16.4          140.5          49.18          62.01          19.28          84.72
      1.61              -27.98          17.18          76.35          65.22          4.393          16.41          139.4          49.54          60.16           20.1          84.07
      1.65               -27.8          17.39          76.02          65.23          4.231          16.41          137.9          49.99          57.86          21.12          83.25
      1.69              -27.58          17.66          75.62          65.25          4.026          16.42          136.1          50.55          54.95           22.4          82.23
     1.731               -27.3           18.0           75.1          65.26          3.767          16.42          133.7          51.27          51.26          24.03          80.93
     1.771              -26.94          18.43          74.44          65.29          3.434          16.43          130.7          52.19          46.54          26.12          79.27
     1.811              -26.48          18.99          73.59          65.32          3.008          16.44          126.9          53.37          40.47           28.8          77.13
     1.851              -25.88           19.7          72.51          65.36          2.463          16.45          122.0          54.88          32.73          32.22          74.41
     1.892              -25.14           20.6          71.14           65.4          1.777          16.46          115.8          56.77          22.99          36.53          70.98
     1.932              -24.24          21.69          69.48          65.46         0.9424          16.48          108.3          59.08          11.12          41.77           66.8
     1.972              -23.18          22.95          67.56          65.53       -0.02554           16.5          99.57          61.76         -2.632          47.85          61.95
     2.012              -22.05          24.32          65.47           65.6         -1.074          16.53          90.12          64.66         -17.53          54.44          56.71
     2.052              -20.91          25.69          63.39          65.68         -2.122          16.55          80.68          67.56         -32.42          61.02          51.46
     2.093              -19.86          26.96          61.46          65.75          -3.09          16.57          71.96          70.23         -46.18           67.1          46.62
     2.133              -18.95          28.05           59.8           65.8         -3.925          16.59          64.44          72.54         -58.04          72.35          42.44
     2.173              -18.21          28.94          58.44          65.85          -4.61           16.6          58.27          74.44         -67.78          76.65          39.01
     2.213              -17.62          29.66          57.35          65.89         -5.155          16.61          53.36          75.95         -75.53          80.08          36.29
     2.254              -17.16          30.21           56.5          65.92         -5.581          16.62          49.51          77.13         -81.59          82.76          34.15
     2.294               -16.8          30.65          55.84          65.94         -5.914          16.63          46.52          78.04         -86.31          84.84          32.49
     2.334              -16.51          30.99          55.33          65.96         -6.174          16.63          44.18          78.76          -90.0          86.48          31.19
     2.374              -16.29          31.25          54.92          65.98         -6.378          16.64          42.34          79.33         -92.91          87.76          30.16
